<svg width="22" height="21" viewBox="0 0 22 21" fill="none" xmlns="http://www.w3.org/2000/svg">
<mask id="path-1-inside-1_3_962" fill="white">
<path fill-rule="evenodd" clip-rule="evenodd" d="M5.32848 13.8718C10.7447 13.8718 15.1355 9.48106 15.1355 4.06481C15.1355 3.01336 14.97 2.00056 14.6637 1.05103C18.147 2.55589 20.5847 6.02226 20.5847 10.058C20.5847 15.4742 16.1939 19.865 10.7777 19.865C6.4129 19.865 2.7141 17.0135 1.4425 13.0718C2.63406 13.5865 3.94796 13.8718 5.32848 13.8718Z"/>
</mask>
<path fill-rule="evenodd" clip-rule="evenodd" d="M5.32848 13.8718C10.7447 13.8718 15.1355 9.48106 15.1355 4.06481C15.1355 3.01336 14.97 2.00056 14.6637 1.05103C18.147 2.55589 20.5847 6.02226 20.5847 10.058C20.5847 15.4742 16.1939 19.865 10.7777 19.865C6.4129 19.865 2.7141 17.0135 1.4425 13.0718C2.63406 13.5865 3.94796 13.8718 5.32848 13.8718Z" fill="black"/>
<path d="M14.6637 1.05103L15.2233 -0.244279L12.3648 -1.47921L13.3208 1.48423L14.6637 1.05103ZM1.4425 13.0718L2.00211 11.7765L-0.856368 10.5415L0.0996351 13.505L1.4425 13.0718ZM13.7244 4.06481C13.7244 8.70178 9.96544 12.4608 5.32848 12.4608V15.2828C11.524 15.2828 16.5465 10.2603 16.5465 4.06481H13.7244ZM13.3208 1.48423C13.5825 2.29549 13.7244 3.1622 13.7244 4.06481H16.5465C16.5465 2.86452 16.3575 1.70563 16.0065 0.617817L13.3208 1.48423ZM14.1041 2.34633C17.0891 3.63593 19.1737 6.60511 19.1737 10.058H21.9957C21.9957 5.4394 19.2048 1.47585 15.2233 -0.244279L14.1041 2.34633ZM19.1737 10.058C19.1737 14.6949 15.4147 18.4539 10.7777 18.4539V21.276C16.9732 21.276 21.9957 16.2535 21.9957 10.058H19.1737ZM10.7777 18.4539C7.04306 18.4539 3.87447 16.0146 2.78537 12.6386L0.0996351 13.505C1.55373 18.0124 5.78275 21.276 10.7777 21.276V18.4539ZM5.32848 12.4608C4.14398 12.4608 3.02026 12.2163 2.00211 11.7765L0.882903 14.3671C2.24785 14.9568 3.75193 15.2828 5.32848 15.2828V12.4608Z" fill="black" mask="url(#path-1-inside-1_3_962)"/>
</svg>
